# xmcd
#
# Track frame offsets:
#	150
#	17721
#	51317
#	68290
#	83093
#	99390
#	137332
#	182261
#	198802
#	220933
#	238168
#	279048
#
# Disc length: 4071 seconds
#
# Revision: 0
# Processed by: cddbd v1.5.2PL0 Copyright (c) Steve Scherf et al.
# Submitted via: EasyCDDAExtractor 10.1.0.1
#
DISCID=900fe50c
DTITLE=Sasha, Benny Y Erik - Entre Amigos
DYEAR=2016
DGENRE=Pop
TTITLE0=Sueltalo ft. Leonel Garcia
TTITLE1=Vivo/Veneno vil ft. Fobia
TTITLE2=Electricidad ft. Jot Dog
TTITLE3=Fantasma ft. Maluma
TTITLE4=Lo siento ft. Pepe Aguilar
TTITLE5=Pa´mover el esqueleto ft. Jay de la Cueva
TTITLE6=Medley Timbiriche
TTITLE7=Vivimos siempre juntos ft. Ana Torroja
TTITLE8=Sin ti
TTITLE9=Con todos menos contigo
TTITLE10=Medley Matador´s
TTITLE11=Japi
EXTD=
EXTT0=
EXTT1=
EXTT2=
EXTT3=
EXTT4=
EXTT5=
EXTT6=
EXTT7=
EXTT8=
EXTT9=
EXTT10=
EXTT11=
PLAYORDER=
